<svg xmlns="http://www.w3.org/2000/svg" width="20" height="20" fill="none"><path d="M 1.053 2.982 C 1.053 1.917 1.917 1.053 2.982 1.053 L 6.147 1.053 C 6.562 1.053 6.931 1.318 7.062 1.712 L 8.507 6.048 C 8.659 6.504 8.453 7.002 8.023 7.216 L 5.845 8.305 C 6.909 10.664 8.809 12.565 11.168 13.628 L 12.257 11.45 C 12.472 11.021 12.97 10.815 13.425 10.966 L 17.761 12.412 C 18.155 12.543 18.421 12.912 18.421 13.327 L 18.421 16.491 C 18.421 17.557 17.557 18.421 16.491 18.421 L 15.526 18.421 C 7.533 18.421 1.053 11.941 1.053 3.947 Z" fill="rgb(254, 191, 3)"></path></svg>