<?xml version="1.0" encoding="UTF-8"?>
<svg version="1.1" xmlns="http://www.w3.org/2000/svg" width="200" height="75">
<path d="M0 0 C12 0 12 0 14.67578125 2.2734375 C15.21589844 3.29695313 15.75601562 4.32046875 16.3125 5.375 C17.23482422 7.00308594 17.23482422 7.00308594 18.17578125 8.6640625 C18.77777344 9.76492187 19.37976563 10.86578125 20 12 C21.30721319 13.93457555 22.63854649 15.85320449 24 17.75 C24.99 19.1525 25.98 20.555 27 22 C27.33 14.74 27.66 7.48 28 0 C32.29 0 36.58 0 41 0 C41 14.52 41 29.04 41 44 C36.71 44 32.42 44 28 44 C24.75615423 40.74983094 23.03747011 38.60995313 20.875 34.75 C20.070625 33.44095703 20.070625 33.44095703 19.25 32.10546875 C18.25414392 30.48286742 17.27747815 28.84820148 16.32763672 27.19824219 C14.82598669 24.6290767 14.82598669 24.6290767 12 21 C11.67 28.59 11.34 36.18 11 44 C7.37 44 3.74 44 0 44 C0 29.48 0 14.96 0 0 Z " fill="#112f1a" transform="translate(5,14)"/>
<path d="M0 0 C0.85851562 -0.48339844 0.85851562 -0.48339844 1.734375 -0.9765625 C6.09661268 -2.94709056 10.73771894 -2.7240865 15.2578125 -1.27734375 C18.39810243 0.15374778 20.6278203 1.60455907 23 4.125 C24.47517849 8.36613817 24.42856304 12.54953769 24 17 C23 18 23 18 21.14233398 18.11352539 C19.95619507 18.10567017 19.95619507 18.10567017 18.74609375 18.09765625 C17.89208984 18.09443359 17.03808594 18.09121094 16.15820312 18.08789062 C15.26037109 18.07951172 14.36253906 18.07113281 13.4375 18.0625 C12.53580078 18.05798828 11.63410156 18.05347656 10.70507812 18.04882812 C8.46998686 18.03700225 6.23502563 18.0205222 4 18 C6.77644038 21.2395674 6.77644038 21.2395674 10.75 22.25 C11.86375 22.12625 11.86375 22.12625 13 22 C13.495 20.515 13.495 20.515 14 19 C17.34373475 19.55728913 20.03312999 20.35173889 23 22 C22.66466224 25.12981912 21.99933599 26.00061159 19.625 28.1875 C14.21832033 31.92068358 8.35242418 31.58896648 2 31 C-2.44328624 29.01639007 -5.03132653 26.4235377 -7.3203125 22.08203125 C-8.6094002 18.13327411 -8.29681196 14.09765397 -8 10 C-8.70125 10.66 -9.4025 11.32 -10.125 12 C-13.48017005 14.33403134 -15.0239264 14.17622487 -19 14 C-19.06058594 15.07121094 -19.12117187 16.14242187 -19.18359375 17.24609375 C-19.26798537 18.64324391 -19.35263406 20.04037857 -19.4375 21.4375 C-19.47681641 22.14455078 -19.51613281 22.85160156 -19.55664062 23.58007812 C-19.88671875 28.88671875 -19.88671875 28.88671875 -21 30 C-22.85287502 30.07226502 -24.70833878 30.0838122 -26.5625 30.0625 C-27.57441406 30.05347656 -28.58632812 30.04445312 -29.62890625 30.03515625 C-30.41136719 30.02355469 -31.19382813 30.01195312 -32 30 C-32.02465622 25.74585377 -32.04283899 21.49174502 -32.05493164 17.23754883 C-32.05997101 15.78929927 -32.06680253 14.34105483 -32.07543945 12.89282227 C-32.08752247 10.81525412 -32.09323211 8.73775303 -32.09765625 6.66015625 C-32.10289307 5.40855713 -32.10812988 4.15695801 -32.11352539 2.86743164 C-32 0 -32 0 -31 -1 C-29.14712498 -1.07226502 -27.29166122 -1.0838122 -25.4375 -1.0625 C-24.42558594 -1.05347656 -23.41367188 -1.04445313 -22.37109375 -1.03515625 C-21.19740234 -1.01775391 -21.19740234 -1.01775391 -20 -1 C-19.67 -0.01 -19.34 0.98 -19 2 C-17.9171875 1.2884375 -17.9171875 1.2884375 -16.8125 0.5625 C-11.43486585 -2.42507453 -5.27278733 -3.51519156 0 0 Z M4 8 C4 8.33 4 8.66 4 9 C6.64 9 9.28 9 12 9 C11.02149805 7.97895449 10.02019573 6.9793879 9 6 C7.15953612 6 5.60370406 7.17228177 4 8 Z " fill="#112f1a" transform="translate(176,28)"/>
<path d="M0 0 C4.42484878 2.21242439 7.19476657 4.94799616 10 9 C11.81020278 14.43060835 11.70097747 19.09743772 9.3125 24.25 C6.9531193 28.42806999 4.54950918 31.07814357 -0.07421875 32.75 C-5.2478506 34.15540084 -8.97396521 34.22305385 -14 32 C-17.91332498 28.70924945 -21.49924266 25.18164116 -22.3203125 19.96484375 C-22.61796174 14.18052681 -21.32809371 9.74521749 -18 5 C-12.5585873 -0.17597793 -7.26297132 -0.81580957 0 0 Z M-10 12 C-11.14568602 15.17266899 -11.13928081 16.63131551 -9.9375 19.8125 C-8.13575037 22.3346598 -8.13575037 22.3346598 -4.875 22.375 C-2.10796961 22.31120653 -2.10796961 22.31120653 -1 21 C-0.77081758 16.98342857 -0.77081758 16.98342857 -1 13 C-2.82537104 10.73980102 -2.82537104 10.73980102 -5.5 10.8125 C-7.99790956 10.84101023 -7.99790956 10.84101023 -10 12 Z " fill="#112f1a" transform="translate(129,25)"/>
<path d="M0 0 C4.42484878 2.21242439 7.19476657 4.94799616 10 9 C11.81020278 14.43060835 11.70097747 19.09743772 9.3125 24.25 C7.04824738 28.35143979 4.19903639 30.90048181 0 33 C-5.25575165 33.5238576 -9.64526095 33.66505372 -14.4375 31.3125 C-18.96083484 27.23046612 -21.76238445 24.02959826 -22.25 17.8125 C-21.9188999 12.76322342 -21.04904325 8.26738393 -17.5703125 4.41796875 C-12.14160115 -0.26800846 -6.90884279 -0.77603226 0 0 Z M-9.9375 12.625 C-11.32218928 15.0760663 -11.32218928 15.0760663 -10.25 18.1875 C-9.26699069 20.852669 -9.26699069 20.852669 -8 22 C-5.04195427 22.33340471 -5.04195427 22.33340471 -2 22 C0.33296251 19.17282787 0.33296251 19.17282787 -0.25 15.9375 C-0.7593244 12.900541 -0.7593244 12.900541 -3 11 C-6.17362023 10.51175073 -7.44560301 10.53502188 -9.9375 12.625 Z " fill="#112f1a" transform="translate(73,26)"/>
<path d="M0 0 C3.63 0 7.26 0 11 0 C11 2.97 11 5.94 11 9 C13.475 9.495 13.475 9.495 16 10 C16.125 16.75 16.125 16.75 15 19 C13.68 19 12.36 19 11 19 C11 25.93 11 32.86 11 40 C7.37 40 3.74 40 0 40 C0 33.07 0 26.14 0 19 C-1.65 18.67 -3.3 18.34 -5 18 C-5.125 11.25 -5.125 11.25 -4 9 C-2.68 9 -1.36 9 0 9 C0 6.03 0 3.06 0 0 Z " fill="#112f1a" transform="translate(90,18)"/>
<path d="M0 0 C0.99 0 1.98 0 3 0 C2.67 0.99 2.34 1.98 2 3 C1.77674186 5.05893621 1.59294241 7.12233653 1.4375 9.1875 C1.35371094 10.27417969 1.26992187 11.36085938 1.18359375 12.48046875 C1.12300781 13.31191406 1.06242188 14.14335938 1 15 C0.67 15 0.34 15 0 15 C0 10.05 0 5.1 0 0 Z " fill="#112f1a" transform="translate(155,38)"/>
</svg>
